<svg width="56" height="56" viewBox="0 0 56 56" fill="none" xmlns="http://www.w3.org/2000/svg">
<rect width="56" height="56" rx="10" fill="#00C7D4"/>
<path d="M38.1577 8C37.3375 8 36.5384 8.31579 35.9075 8.92632L31.449 13.3895L42.5952 24.5684L47.0536 20.1474C48.3155 18.8632 48.3155 16.8632 47.0536 15.6421L40.387 8.92632C39.756 8.31579 38.9569 8 38.1577 8ZM29.9558 14.8842L12.9211 31.9579L18.3049 32.5474L18.6835 37.3684L23.4784 37.7263L24.0883 43.1158L41.123 26.0421L29.9558 14.8842ZM11.6803 33.9158L8 48L22.0904 44.2316L21.5857 39.6842L16.7277 39.3263L16.3491 34.4421" fill="white"/>
</svg>
