<svg width="80" height="80" viewBox="0 0 80 80" fill="none" xmlns="http://www.w3.org/2000/svg">
<path fill-rule="evenodd" clip-rule="evenodd" d="M80 40C80 50.6087 75.7857 60.7828 68.2843 68.2843C60.7828 75.7857 50.6087 80 40 80C29.3913 80 19.2172 75.7857 11.7157 68.2843C4.21427 60.7828 0 50.6087 0 40C0 29.3913 4.21427 19.2172 11.7157 11.7157C19.2172 4.21427 29.3913 0 40 0C50.6087 0 60.7828 4.21427 68.2843 11.7157C75.7857 19.2172 80 29.3913 80 40ZM41.77 53.23C42.2394 53.6994 42.5032 54.3361 42.5032 55C42.5032 55.6639 42.2394 56.3006 41.77 56.77C41.3006 57.2394 40.6639 57.5032 40 57.5032C39.3361 57.5032 38.6994 57.2394 38.23 56.77L23.23 41.77C22.9972 41.5378 22.8125 41.2619 22.6864 40.9582C22.5604 40.6544 22.4955 40.3288 22.4955 40C22.4955 39.6712 22.5604 39.3456 22.6864 39.0418C22.8125 38.7381 22.9972 38.4622 23.23 38.23L38.23 23.23C38.4624 22.9976 38.7384 22.8132 39.0421 22.6874C39.3458 22.5616 39.6713 22.4968 40 22.4968C40.3287 22.4968 40.6542 22.5616 40.9579 22.6874C41.2616 22.8132 41.5376 22.9976 41.77 23.23C42.0024 23.4624 42.1868 23.7384 42.3126 24.0421C42.4384 24.3458 42.5032 24.6713 42.5032 25C42.5032 25.3287 42.4384 25.6542 42.3126 25.9579C42.1868 26.2616 42.0024 26.5376 41.77 26.77L31.035 37.5H55C55.663 37.5 56.2989 37.7634 56.7678 38.2322C57.2366 38.7011 57.5 39.337 57.5 40C57.5 40.663 57.2366 41.2989 56.7678 41.7678C56.2989 42.2366 55.663 42.5 55 42.5H31.035L41.77 53.23Z" fill="#00C7D4"/>
</svg>
