<svg width="60" height="60" viewBox="0 0 60 60" fill="none" xmlns="http://www.w3.org/2000/svg">
<circle cx="30" cy="30" r="30" fill="black"/>
<path d="M43.7636 14.6772H36.6436V13.3794C36.6436 11.2327 34.9014 9.48621 32.76 9.48621H27.5817C25.4403 9.48621 23.6981 11.2327 23.6981 13.3794V14.6772H16.5781C14.7935 14.6772 13.3417 16.1326 13.3417 17.9215V22.4636C13.3417 23.1802 13.9213 23.7613 14.6362 23.7613H15.3437L16.4621 47.3057C16.5609 49.385 18.2649 51.0138 20.3413 51.0138H40.0004C42.0769 51.0138 43.7809 49.385 43.8796 47.3057L44.998 23.7613H45.7055C46.4204 23.7613 47 23.1802 47 22.4636V17.9215C47 16.1326 45.5482 14.6772 43.7636 14.6772ZM26.2872 13.3794C26.2872 12.6639 26.868 12.0817 27.5817 12.0817H32.76C33.4737 12.0817 34.0545 12.6639 34.0545 13.3794V14.6772H26.2872V13.3794ZM15.9308 17.9215C15.9308 17.5637 16.2212 17.2726 16.5781 17.2726H43.7636C44.1205 17.2726 44.4109 17.5637 44.4109 17.9215V21.1658C44.012 21.1658 17.584 21.1658 15.9308 21.1658V17.9215ZM41.2934 47.1823C41.2605 47.8753 40.6925 48.4183 40.0004 48.4183H20.3413C19.6491 48.4183 19.0812 47.8753 19.0483 47.1823L17.9357 23.7613H42.406L41.2934 47.1823Z" fill="white"/>
<path d="M30.1708 45.8229C30.8857 45.8229 31.4653 45.2418 31.4653 44.5251V27.6545C31.4653 26.9379 30.8857 26.3568 30.1708 26.3568C29.4559 26.3568 28.8762 26.9379 28.8762 27.6545V44.5251C28.8762 45.2418 29.4558 45.8229 30.1708 45.8229Z" fill="white"/>
<path d="M36.6436 45.8229C37.3585 45.8229 37.9381 45.2418 37.9381 44.5251V27.6545C37.9381 26.9379 37.3585 26.3568 36.6436 26.3568C35.9286 26.3568 35.349 26.9379 35.349 27.6545V44.5251C35.349 45.2418 35.9286 45.8229 36.6436 45.8229Z" fill="white"/>
<path d="M23.698 45.8229C24.4129 45.8229 24.9925 45.2418 24.9925 44.5251V27.6545C24.9925 26.9379 24.4129 26.3568 23.698 26.3568C22.9831 26.3568 22.4034 26.9379 22.4034 27.6545V44.5251C22.4034 45.2418 22.983 45.8229 23.698 45.8229Z" fill="white"/>
</svg>
