<svg width="80" height="80" viewBox="0 0 80 80" fill="none" xmlns="http://www.w3.org/2000/svg">
<path fill-rule="evenodd" clip-rule="evenodd" d="M80 40C80 50.6087 75.7857 60.7828 68.2843 68.2843C60.7828 75.7857 50.6087 80 40 80C29.3913 80 19.2172 75.7857 11.7157 68.2843C4.21427 60.7828 0 50.6087 0 40C0 29.3913 4.21427 19.2172 11.7157 11.7157C19.2172 4.21427 29.3913 0 40 0C50.6087 0 60.7828 4.21427 68.2843 11.7157C75.7857 19.2172 80 29.3913 80 40ZM38.23 53.23C37.7606 53.6994 37.4968 54.3361 37.4968 55C37.4968 55.6639 37.7606 56.3006 38.23 56.77C38.6994 57.2394 39.3361 57.5032 40 57.5032C40.6639 57.5032 41.3006 57.2394 41.77 56.77L56.77 41.77C57.0028 41.5378 57.1875 41.2619 57.3136 40.9582C57.4396 40.6544 57.5045 40.3288 57.5045 40C57.5045 39.6712 57.4396 39.3456 57.3136 39.0418C57.1875 38.7381 57.0028 38.4622 56.77 38.23L41.77 23.23C41.5376 22.9976 41.2616 22.8132 40.9579 22.6874C40.6542 22.5616 40.3287 22.4968 40 22.4968C39.6713 22.4968 39.3458 22.5616 39.0421 22.6874C38.7384 22.8132 38.4624 22.9976 38.23 23.23C37.9976 23.4624 37.8132 23.7384 37.6874 24.0421C37.5616 24.3458 37.4968 24.6713 37.4968 25C37.4968 25.3287 37.5616 25.6542 37.6874 25.9579C37.8132 26.2616 37.9976 26.5376 38.23 26.77L48.965 37.5H25C24.337 37.5 23.7011 37.7634 23.2322 38.2322C22.7634 38.7011 22.5 39.337 22.5 40C22.5 40.663 22.7634 41.2989 23.2322 41.7678C23.7011 42.2366 24.337 42.5 25 42.5H48.965L38.23 53.23Z" fill="#00C7D4"/>
</svg>
